<svg width="32" height="32" viewBox="0 0 32 32" fill="none" xmlns="http://www.w3.org/2000/svg">
<path d="M2 2V30H30V2H2ZM17 23.75C17 26.4756 15.39 27.8044 13.0594 27.8044C10.9544 27.8044 9.7325 26.7144 9.1125 25.3988L11.255 24.1019C11.6681 24.835 11.9819 25.455 12.8837 25.455C13.6337 25.455 14.25 25.1169 14.25 23.8013V15H17V23.75ZM23.2094 27.7419C20.7663 27.7419 19.1875 26.6394 18.4169 25.1169L20.5625 23.875C21.125 24.7962 21.8594 25.41 23.1562 25.41C24.2463 25.41 24.8794 24.9275 24.8794 24.1756C24.8794 23.2737 24.2275 22.9544 23.0244 22.4256L22.3669 22.1431C20.4681 21.3356 19.2094 20.3206 19.2094 18.1775C19.2094 16.2044 20.7125 14.7631 23.0619 14.7631C24.735 14.7631 25.9369 15.2831 26.8025 16.8056L24.75 18.125C24.2988 17.3169 23.8125 17 23.0588 17C22.2881 17 21.7994 17.4887 21.7994 18.125C21.7994 18.9144 22.2881 19.2337 23.4156 19.7225L24.0731 20.0044C26.31 20.9631 27.5694 21.9419 27.5694 24.1394C27.57 26.5081 25.7094 27.7419 23.2094 27.7419Z" fill="#64FFDA"/>
</svg>
