<svg width="32" height="32" viewBox="0 0 32 32" fill="none" xmlns="http://www.w3.org/2000/svg">
<path d="M2.19 0.25L4.70375 28.4707L15.9833 31.6157L27.2943 28.4592L29.81 0.25H2.19ZM24.5877 6.7155L23.751 16.1167L23.7535 16.1675L23.75 16.2842V16.2832L23.1555 22.8567L23.09 23.4407L16 25.4017V25.402L15.9945 25.4067L8.91675 23.4347L8.4375 18H11.9083L12.1545 20.7635L16.001 21.806L16 21.808V21.8075L19.8608 20.7502L20.2687 16.25H12.198L12.1288 15.4892L11.971 13.707L11.8883 12.75H20.5755L20.8915 9.25H7.66L7.59075 8.48975L7.43325 6.707L7.35025 5.75H24.6705L24.5877 6.7155Z" fill="#64FFDA"/>
</svg>
