<svg width="36" height="32" viewBox="0 0 36 32" fill="none" xmlns="http://www.w3.org/2000/svg">
<path d="M17.9048 19.4285C19.7984 19.4285 21.3334 17.8934 21.3334 15.9999C21.3334 14.1063 19.7984 12.5713 17.9048 12.5713C16.0113 12.5713 14.4762 14.1063 14.4762 15.9999C14.4762 17.8934 16.0113 19.4285 17.9048 19.4285Z" fill="#64FFDA"/>
<path d="M30.2895 10.619C29.6602 10.39 29.0024 10.161 28.3159 9.96068C28.4875 9.27373 28.6305 8.58679 28.745 7.92847C29.3456 4.15028 28.6878 1.48838 26.8572 0.457962C26.3138 0.143113 25.7132 0 25.0267 0C23.0246 0 20.479 1.48838 17.9048 3.97855C15.3306 1.48838 12.7851 0 10.7829 0C10.0965 0 9.49585 0.143113 8.95241 0.457962C7.12189 1.517 6.46404 4.1789 7.06468 7.92847C7.17909 8.58679 7.3221 9.27373 7.49371 9.96068C6.80726 10.161 6.14942 10.3614 5.52018 10.619C1.94493 11.9929 0 13.882 0 16.0001C0 18.1181 1.97353 20.0072 5.52018 21.3811C6.14942 21.6101 6.80726 21.8391 7.49371 22.0394C7.3221 22.7264 7.17909 23.4133 7.06468 24.0716C6.46404 27.8498 7.12189 30.5117 8.95241 31.5421C9.49585 31.857 10.0965 32.0001 10.7829 32.0001C12.8137 32.0001 15.3592 30.5117 17.9048 28.0216C20.479 30.5117 23.0246 32.0001 25.0267 32.0001C25.7132 32.0001 26.3138 31.857 26.8572 31.5421C28.6878 30.4831 29.3456 27.8212 28.745 24.0716C28.6305 23.4133 28.4875 22.7264 28.3159 22.0394C29.0024 21.8391 29.6602 21.6387 30.2895 21.3811C33.8647 20.0072 35.8096 18.1181 35.8096 16.0001C35.8096 13.882 33.8647 11.9929 30.2895 10.619ZM26.0564 1.88909C27.2291 2.57604 27.6295 4.69411 27.1432 7.69949C27.0574 8.30056 26.9144 8.93026 26.7428 9.58858C25.2555 9.24511 23.6824 9.01613 22.0235 8.87301C21.051 7.49913 20.05 6.26836 19.0489 5.15207C21.1654 3.06262 23.3106 1.63149 25.0553 1.63149C25.4271 1.63149 25.7704 1.71736 26.0564 1.88909ZM22.853 18.8623C22.3381 19.7782 21.7375 20.6942 21.1082 21.6101C20.05 21.696 18.9917 21.7246 17.9048 21.7246C16.7893 21.7246 15.7311 21.696 14.7014 21.6101C14.0722 20.6942 13.5001 19.7782 12.9853 18.8623C12.4418 17.9178 11.927 16.9446 11.4694 16.0001C11.927 15.0555 12.4418 14.0823 12.9853 13.1378C13.5001 12.2219 14.1008 11.3059 14.73 10.39C15.7883 10.3041 16.8465 10.2755 17.9334 10.2755C19.0489 10.2755 20.1072 10.3041 21.1368 10.39C21.7661 11.3059 22.3381 12.2219 22.853 13.1378C23.3964 14.0823 23.9112 15.0555 24.3689 16.0001C23.8826 16.9446 23.3964 17.8891 22.853 18.8623ZM25.2269 17.9178C25.6559 18.9196 25.9992 19.8927 26.3138 20.8659C25.3413 21.0949 24.3117 21.2666 23.2248 21.4097C23.568 20.8659 23.9398 20.2934 24.2544 19.6924C24.5977 19.0913 24.9123 18.4902 25.2269 17.9178ZM17.9048 25.6745C17.2184 24.9303 16.5605 24.1289 15.9313 23.2988C16.5891 23.3274 17.247 23.3561 17.9048 23.3561C18.5627 23.3561 19.2205 23.3274 19.8784 23.2988C19.2491 24.1289 18.5913 24.9303 17.9048 25.6745ZM12.5849 21.3811C11.498 21.238 10.4683 21.0663 9.49585 20.8373C9.81047 19.8927 10.1537 18.8909 10.5827 17.8891C10.8973 18.4616 11.212 19.0627 11.5552 19.6351C11.8984 20.2648 12.2416 20.8087 12.5849 21.3811ZM10.5827 14.0823C10.1537 13.0805 9.81047 12.1074 9.49585 11.1342C10.4683 10.9052 11.498 10.7335 12.5849 10.5904C12.2416 11.1342 11.8698 11.7067 11.5552 12.3077C11.212 12.9088 10.8973 13.5099 10.5827 14.0823ZM17.9048 6.3256C18.5913 7.06979 19.2491 7.87122 19.8784 8.70128C19.2205 8.67266 18.5627 8.64403 17.9048 8.64403C17.247 8.64403 16.5891 8.67266 15.9313 8.70128C16.5605 7.87122 17.2184 7.06979 17.9048 6.3256ZM24.2544 12.3364L23.2248 10.619C24.3117 10.7621 25.3413 10.9338 26.3138 11.1628C25.9992 12.1074 25.6559 13.1092 25.2269 14.111C24.9123 13.5099 24.5977 12.9088 24.2544 12.3364ZM8.66639 7.69949C8.18016 4.69411 8.58058 2.57604 9.75326 1.88909C10.0393 1.71736 10.3825 1.63149 10.7543 1.63149C12.4704 1.63149 14.6156 3.034 16.7607 5.15207C15.7597 6.23973 14.7586 7.49913 13.7861 8.87301C12.1272 9.01613 10.5541 9.27373 9.06682 9.58858C8.89521 8.93026 8.7808 8.30056 8.66639 7.69949ZM1.60171 16.0001C1.60171 14.6548 3.23202 13.2237 6.09222 12.1646C6.66425 11.9356 7.2935 11.7353 7.92274 11.5635C8.38037 12.9947 8.95241 14.5117 9.63885 16.0287C8.95241 17.5457 8.35177 19.034 7.92274 20.4652C3.97567 19.3203 1.60171 17.6029 1.60171 16.0001ZM9.75326 30.111C8.58058 29.4241 8.18016 27.306 8.66639 24.3006C8.7522 23.6995 8.89521 23.0698 9.06682 22.4115C10.5541 22.755 12.1272 22.984 13.7861 23.1271C14.7586 24.501 15.7597 25.7317 16.7607 26.848C14.6442 28.9375 12.4991 30.3686 10.7543 30.3686C10.3825 30.3686 10.0393 30.2827 9.75326 30.111ZM27.1432 24.3006C27.6295 27.306 27.2291 29.4241 26.0564 30.111C25.7704 30.2827 25.4271 30.3686 25.0553 30.3686C23.3392 30.3686 21.194 28.9661 19.0489 26.848C20.05 25.7604 21.051 24.501 22.0235 23.1271C23.6824 22.984 25.2555 22.7264 26.7428 22.4115C26.9144 23.0698 27.0288 23.6995 27.1432 24.3006ZM29.7174 19.8355C29.1454 20.0645 28.5161 20.2648 27.8869 20.4366C27.4293 19.0054 26.8572 17.4884 26.1708 15.9714C26.8572 14.4544 27.4579 12.9661 27.8869 11.5349C31.834 12.6798 34.2079 14.3972 34.2079 16.0001C34.2079 17.3453 32.549 18.7764 29.7174 19.8355Z" fill="#64FFDA"/>
</svg>
