<svg width="24" height="24" viewBox="0 0 24 24" fill="none" xmlns="http://www.w3.org/2000/svg">
<path d="M23.25 5.13264C22.406 5.49936 21.513 5.74097 20.5992 5.84982C21.5595 5.2875 22.2817 4.39415 22.6303 3.33732C21.7224 3.86823 20.7307 4.24073 19.6978 4.43889C19.2629 3.98304 18.7397 3.6204 18.1603 3.37302C17.5808 3.12563 16.9571 2.99866 16.327 2.99982C13.7761 2.99982 11.7117 5.0342 11.7117 7.54201C11.7099 7.89084 11.7499 8.23863 11.8308 8.57795C10.0016 8.4922 8.2104 8.02557 6.57187 7.20791C4.93333 6.39026 3.48351 5.23959 2.31516 3.82951C1.90527 4.52051 1.6885 5.30891 1.6875 6.11232C1.6875 7.68732 2.50922 9.07951 3.75 9.89514C3.01487 9.87769 2.29481 9.68312 1.65094 9.32795V9.3842C1.65094 11.5873 3.24469 13.4201 5.35406 13.8373C4.9574 13.9431 4.54864 13.9966 4.13812 13.9967C3.84683 13.9972 3.5562 13.9689 3.27047 13.9123C3.85687 15.717 5.56359 17.0295 7.58531 17.067C5.94252 18.3331 3.9256 19.0174 1.85156 19.0123C1.48341 19.0118 1.11561 18.9899 0.75 18.9467C2.85993 20.294 5.31255 21.0066 7.81594 20.9998C16.3172 20.9998 20.9616 14.0764 20.9616 8.0717C20.9616 7.87482 20.9564 7.67795 20.947 7.48576C21.8485 6.84454 22.6283 6.04769 23.25 5.13264Z" fill="#f7f7f7"/>
</svg>
