<svg width="120" height="120" viewBox="0 0 120 120" fill="none" xmlns="http://www.w3.org/2000/svg">
<path fill-rule="evenodd" clip-rule="evenodd" d="M24.1403 29.2561C21.5222 29.9809 18.9173 30.9771 16.3256 32.2445C14.5663 31.1297 13.3455 30.7182 12.6632 31.0102C11.981 31.3022 11.4167 32.5172 10.9704 34.6552C10.8498 35.0392 10.6404 35.4375 10.3421 35.8501C10.0343 36.2034 9.75132 36.5224 9.49322 36.8069C8.56025 37.8077 7.56329 38.7884 6.50232 39.749C5.49106 40.6408 4.56286 41.6713 3.71771 42.8402C2.99313 43.6252 2.37645 44.5144 1.86768 45.5077C1.40863 46.4323 0.954344 47.3865 0.504816 48.3704C0.194909 49.0887 0.0722438 49.8376 0.136821 50.6173C0.251113 51.3281 0.62722 51.9665 1.26514 52.5324C2.04059 53.1978 2.90223 53.4543 3.85005 53.3019C4.38321 53.2162 4.73493 52.9469 4.90521 52.4941C5.13474 52.0318 5.22674 51.4701 5.18121 50.809C5.13359 50.5128 5.05159 50.1917 4.9352 49.8458C4.87805 49.4904 4.89443 49.2143 4.98434 49.0175C5.72263 47.5618 6.57836 46.2696 7.55151 45.1408C8.52467 44.012 9.62583 42.9234 10.855 41.875L11.1121 43.4745C11.2285 43.8204 11.2561 44.1806 11.1947 44.5551C11.3592 52.0034 11.7262 59.3888 12.2957 66.7112C12.8558 73.9744 13.4894 81.317 14.1965 88.7388C14.2991 89.7554 14.3389 90.5694 14.3156 91.1809C14.2829 91.7331 14.1173 92.2155 13.819 92.628C13.5705 92.9719 13.1891 93.2459 12.675 93.4501C12.1609 93.6543 11.4596 93.8278 10.571 93.9707C10.0378 94.0564 9.65754 94.1479 9.43011 94.2452C8.85677 94.459 8.39133 94.7769 8.0338 95.199C7.67627 95.6211 7.54989 96.158 7.65466 96.8096C7.73085 97.2835 7.90543 97.8024 8.17839 98.3662C8.50107 98.8612 8.82955 99.2034 9.16385 99.3928C9.8631 99.5842 10.5576 99.746 11.2473 99.8782C11.9963 100.001 12.6871 99.9506 13.3196 99.7273C15.2862 99.1073 17.077 98.1509 18.6923 96.8581C26.0113 91.7313 32.6304 85.6535 38.5498 78.6248C40.7542 76.0826 42.7523 73.3913 44.5441 70.5509C46.3359 67.7104 47.8871 64.696 49.1976 61.5075C50.2077 59.0966 51.0306 56.655 51.6662 54.1828C52.2923 51.6513 52.6327 49.0442 52.6876 46.3615C52.7338 41.7355 51.6562 37.8675 49.4546 34.7575C47.3122 31.6381 44.1624 29.6225 40.0049 28.7109C38.744 28.4275 37.4676 28.2377 36.176 28.1415C34.9436 28.0358 33.7207 27.9893 32.5073 28.0021C29.5972 28.0446 26.8082 28.4626 24.1403 29.2561ZM21.3686 86.8565C21.0819 86.9633 20.7159 87.1437 20.2706 87.3976C19.7665 78.9708 19.2223 70.672 18.6378 62.5011C18.0439 54.2711 17.4748 46.0066 16.9305 37.7078C18.1883 36.8371 19.4746 36.1441 20.7894 35.6289C22.154 35.0448 23.5329 34.5497 24.9261 34.1434C26.8429 33.5921 28.7586 33.2233 30.6733 33.037C32.6473 32.8412 34.6345 32.9167 36.6349 33.2636C44.5202 34.3051 47.9696 39.1287 46.9832 47.7344C46.7855 49.5285 46.4349 51.3168 45.9315 53.0994C45.4778 54.8131 44.9553 56.4771 44.364 58.0915C42.8621 61.9792 41.0069 65.5591 38.7983 68.8311C36.5802 72.044 34.087 75.058 31.3187 77.8731C29.9193 79.3743 28.4215 80.8305 26.8253 82.2418L22.1858 86.2693C21.9774 86.4851 21.705 86.6808 21.3686 86.8565ZM59.4701 71.3554C59.8985 70.618 60.347 69.8167 60.8156 68.9513C61.0039 70.501 61.3558 71.9334 61.871 73.2482C62.3863 74.5631 63.0364 75.5829 63.8214 76.3074C64.6656 77.0225 65.6256 77.3239 66.7014 77.2117C67.8365 77.09 69.0932 76.4018 70.4715 75.1471C71.0469 74.5684 71.5584 73.9696 72.0058 73.3508C72.5125 72.7224 72.98 72.0395 73.4084 71.3021C74.0356 70.2897 74.5185 69.5132 74.857 68.9726C75.0303 68.7006 75.1937 68.4423 75.3472 68.1976C75.4228 68.5979 75.5083 68.9985 75.6036 69.3995C75.92 70.9895 76.4199 72.398 77.1033 73.6251C77.846 74.8426 78.8881 75.4651 80.2294 75.4925C81.0873 75.5369 81.7839 75.3337 82.3192 74.883C82.9137 74.4228 83.4299 73.8537 83.8678 73.1756C84.1565 72.7038 84.5754 71.9072 85.1244 70.7858C85.6383 69.736 86.1699 68.63 86.719 67.468C87.0443 68.2198 87.4996 68.8936 88.085 69.4894C89.6243 71.1258 91.8099 71.8683 94.6417 71.7168C96.073 71.5475 97.6 71.0285 99.2227 70.1599C100.895 69.2226 102.48 68.117 103.976 66.8433C105.532 65.56 106.926 64.2117 108.157 62.7983C109.448 61.3754 110.422 60.0641 111.08 58.8645C111.459 58.1959 111.63 57.5606 111.594 56.9587C111.548 56.2976 111.354 55.8427 111.01 55.5941C110.725 55.336 110.321 55.2795 109.798 55.4244C109.274 55.5694 108.684 56.0592 108.028 56.8939C106.499 58.7198 105.03 60.3538 103.621 61.7957C102.212 63.2377 100.384 64.5342 98.1386 65.6853C97.4161 66.1053 96.6545 66.4708 95.8537 66.7819C95.1027 67.0242 94.3918 67.1385 93.7211 67.1247C93.1097 67.1015 92.5834 66.8519 92.1422 66.3759C91.7603 65.8904 91.563 65.0409 91.5502 63.8275C92.8704 64.1015 94.2435 63.7592 95.6694 62.8007C97.1546 61.8326 98.3895 60.6314 99.3743 59.1968C100.409 57.6936 101.044 56.1633 101.28 54.6062C101.516 53.049 101.049 51.8478 99.88 51.0027C98.9078 50.2474 97.8341 49.9947 96.6588 50.2444C95.5332 50.4253 94.4257 50.9073 93.3362 51.6902C92.2963 52.4043 91.3147 53.2913 90.3913 54.3514C89.4583 55.3522 88.7528 56.2556 88.2747 57.0617C87.7099 57.9529 87.2538 58.8889 86.9062 59.8699C86.7814 60.0603 86.6659 60.2493 86.5598 60.4367C86.4201 60.7023 86.2853 60.9974 86.1552 61.3222C86.0251 61.6469 85.7257 62.242 85.2572 63.1074C84.7791 63.9135 84.3401 64.7741 83.9403 65.6891C83.4908 66.673 83.0931 67.2231 82.7471 67.3395C82.4605 67.4463 82.1902 67.2771 81.9363 66.8317C81.7416 66.3769 81.5776 65.7348 81.4443 64.9054C81.3109 64.0761 81.2024 63.2123 81.1188 62.3142C80.7525 57.3899 80.5639 52.4371 80.553 47.4556C80.5918 42.4054 80.6756 37.2569 80.8043 32.0099C80.7249 30.3819 80.005 29.4949 78.6446 29.349C77.9739 29.3353 77.3662 29.5242 76.8214 29.9156C76.3263 30.2383 75.9926 30.8085 75.8202 31.6262C75.3972 33.1527 75.0847 35.178 74.8828 37.702C74.6809 40.2261 74.5325 42.8935 74.4374 45.7042C74.3329 48.4557 74.3219 51.2225 74.4046 54.0047C74.4778 56.7276 74.5826 59.0808 74.7192 61.0642C74.7482 61.3919 74.7768 61.7753 74.8051 62.2143C74.1763 63.1522 73.6794 63.9076 73.3144 64.4806C72.9854 65.0804 72.6517 65.6506 72.3132 66.1912C72.0244 66.663 71.686 67.2036 71.2978 67.8129C70.9688 68.4128 70.4658 69.2533 69.7889 70.3344C68.9437 71.5034 68.2842 72.126 67.8103 72.2022C67.3956 72.2689 67.0565 72.0499 66.7931 71.5453C66.5889 71.0312 66.4746 70.3203 66.4502 69.4127C66.4163 68.4458 66.3872 67.5086 66.3628 66.6009C66.3194 65.5748 66.3151 64.6032 66.3499 63.686C66.4345 62.7001 66.4598 61.7237 66.4259 60.7568C66.4322 59.6619 66.2491 58.9014 65.8767 58.4751C65.4948 57.9895 64.8167 57.5516 63.8424 57.1613C62.1498 56.4611 60.5725 56.2893 59.1106 56.6459C57.6487 57.0025 56.2582 57.8034 54.9391 59.0486C52.9356 60.9507 51.5177 63.0929 50.6853 65.4753C49.8529 67.8576 49.4141 70.4198 49.3688 73.1617C49.3741 73.9509 49.5915 74.7363 50.0211 75.5181C50.567 76.6457 51.3472 77.3407 52.3617 77.603C53.3074 77.8155 54.2611 77.5103 55.2226 76.6872C55.7674 76.2958 56.2635 75.7906 56.7109 75.1717C57.2176 74.5433 57.6994 73.9493 58.1564 73.3897L59.4701 71.3554ZM55.6586 70.3274C54.8727 71.4868 54.2169 72.3215 53.6911 72.8314C53.6117 71.2034 53.7587 69.6605 54.132 68.2027C54.4958 66.6858 54.9866 65.3914 55.6043 64.3198C56.2717 63.1794 57.0709 62.2913 58.0017 61.6555C58.9231 60.9604 59.8968 60.5911 60.9229 60.5477C60.8309 61.1094 60.4856 61.9854 59.8869 63.1755C59.338 64.2968 58.6801 65.4965 57.9132 66.7744C57.196 67.9836 56.4445 69.1679 55.6586 70.3274ZM92.9336 59.9589C93.3799 57.8209 94.8158 55.9797 97.2414 54.435C96.8966 56.0705 96.3323 57.2855 95.5485 58.08C94.8239 58.865 93.9523 59.4913 92.9336 59.9589ZM119.644 78.4431C119.443 77.0771 118.173 76.1327 116.807 76.3337L117.171 78.8071C116.807 76.3337 116.807 76.3337 116.807 76.3337L116.806 76.3339L116.802 76.3344L116.788 76.3364L116.734 76.3445L116.52 76.376C116.333 76.4038 116.056 76.4449 115.698 76.4982C114.983 76.6047 113.945 76.7601 112.652 76.9558C110.065 77.3471 106.456 77.8995 102.367 78.5439C94.198 79.8314 84.0834 81.4908 76.379 82.968C68.6731 84.4456 59.1005 86.5612 51.4719 88.3029C47.6538 89.1746 44.3156 89.9543 41.9317 90.5161C40.7397 90.7971 39.7861 91.0236 39.1301 91.1799C38.8021 91.2581 38.5485 91.3187 38.3767 91.3599L38.1812 91.4067L38.1313 91.4188L38.1185 91.4218L38.1153 91.4226L38.1144 91.4228C38.1142 91.4229 38.1141 91.4229 38.6825 93.7854L38.1141 91.4229C36.7717 91.7459 35.9453 93.0959 36.2682 94.4383C36.5912 95.7807 37.9412 96.6071 39.2837 96.2842L38.7242 93.9588C39.2837 96.2842 39.2837 96.2842 39.2838 96.2841L39.2845 96.284L39.2875 96.2832L39.2997 96.2803L39.3484 96.2686L39.5413 96.2224C39.7114 96.1816 39.9632 96.1214 40.2893 96.0437C40.9416 95.8882 41.8911 95.6627 43.0787 95.3828C45.4539 94.823 48.7805 94.046 52.5848 93.1775C60.201 91.4386 69.7039 89.339 77.3206 87.8786C84.9388 86.4178 94.9848 84.7691 103.146 83.4829C107.222 82.8405 110.82 82.2897 113.399 81.8996C114.689 81.7045 115.723 81.5496 116.435 81.4436C116.791 81.3905 117.066 81.3497 117.252 81.3221L117.464 81.2909L117.517 81.283L117.53 81.2811L117.534 81.2806L117.535 81.2805C117.535 81.2804 117.535 81.2804 117.171 78.8071L117.535 81.2804C118.901 81.0794 119.845 79.8091 119.644 78.4431Z" fill="#f7f7f7"/>
</svg>
